<?xml version="1.0" encoding="UTF-8" standalone="no"?>
<!-- Created with Inkscape (http://www.inkscape.org/) -->

<svg
   width="39.99601mm"
   height="16.668755mm"
   viewBox="0 0 39.99601 16.668755"
   version="1.1"
   id="svg21"
   inkscape:version="1.2.2 (b0a8486541, 2022-12-01)"
   sodipodi:docname="stckdai.svg"
   xmlns:inkscape="http://www.inkscape.org/namespaces/inkscape"
   xmlns:sodipodi="http://sodipodi.sourceforge.net/DTD/sodipodi-0.dtd"
   xmlns="http://www.w3.org/2000/svg"
   xmlns:svg="http://www.w3.org/2000/svg">
  <sodipodi:namedview
     id="namedview23"
     pagecolor="#ffffff"
     bordercolor="#000000"
     borderopacity="0.25"
     inkscape:showpageshadow="2"
     inkscape:pageopacity="0.0"
     inkscape:pagecheckerboard="0"
     inkscape:deskcolor="#d1d1d1"
     inkscape:document-units="mm"
     showgrid="false"
     inkscape:zoom="1.1893044"
     inkscape:cx="554.94624"
     inkscape:cy="389.72361"
     inkscape:window-width="1854"
     inkscape:window-height="1131"
     inkscape:window-x="0"
     inkscape:window-y="0"
     inkscape:window-maximized="1"
     inkscape:current-layer="layer1" />
  <defs
     id="defs18" />
  <g
     inkscape:label="Layer 1"
     inkscape:groupmode="layer"
     id="layer1"
     transform="translate(-87.892099,-117.34813)">
    <g
       id="g352"
       style="fill:#1a1a1a"
       inkscape:export-filename="smalllogo.png"
       inkscape:export-xdpi="96"
       inkscape:export-ydpi="96">
      <path
         d="m 127.88811,133.86502 h -2.95434 v -11.75438 h 2.95434 z"
         fill="#0986d7"
         id="path45"
         style="fill:#1a1a1a;stroke-width:0.264583" />
      <path
         d="m 112.76294,133.48772 c -0.4355,0 -0.84667,-0.0902 -1.23375,-0.27067 -0.38709,-0.19446 -0.72576,-0.45825 -1.01601,-0.79136 -0.29024,-0.33338 -0.52017,-0.71517 -0.6895,-1.14538 -0.15716,-0.4445 -0.23574,-0.91652 -0.23574,-1.41632 0,-0.4998 0.0786,-0.97181 0.23574,-1.41605 0.16933,-0.44423 0.39926,-0.83317 0.6895,-1.16628 0.29025,-0.33338 0.62892,-0.59717 1.01601,-0.79137 0.38708,-0.19447 0.79825,-0.29157 1.23375,-0.29157 h 6.985 c 0,-0.4027 -0.127,-0.74295 -0.381,-1.0205 -0.24183,-0.27781 -0.53816,-0.41645 -0.889,-0.41645 h -8.89 v -2.91571 h 8.89 c 0.52017,0 1.00991,0.118 1.4695,0.35401 0.47175,0.22225 0.87709,0.53446 1.21576,0.93715 0.35057,0.38868 0.62283,0.84694 0.81624,1.37452 0.20558,0.52757 0.3085,1.08981 0.3085,1.68698 v 7.289 z m -0.635,-3.62373 c 0,0.19447 0.0606,0.36804 0.1815,0.5207 0.13309,0.13891 0.28417,0.20823 0.4535,0.20823 h 6.985 v -1.45786 h -6.985 c -0.16933,0 -0.32041,0.0696 -0.4535,0.20823 -0.12091,0.13891 -0.1815,0.31247 -0.1815,0.5207 z"
         fill="#0986d7"
         id="path47"
         style="fill:#1a1a1a;stroke-width:0.264583" />
      <path
         d="m 108.26687,134.01689 h -2.91227 v -2.91227 h 2.91227 z"
         fill="#0986d7"
         id="path49"
         style="fill:#1a1a1a;stroke-width:0.264583" />
      <rect
         x="124.93377"
         y="117.34814"
         width="2.9104166"
         height="2.9104166"
         fill="#098cd3"
         id="rect51"
         style="fill:#1a1a1a;stroke-width:0.264583" />
      <rect
         x="87.892097"
         y="121.58147"
         width="15.610416"
         height="2.9104166"
         fill="#042747"
         id="rect53"
         style="fill:#1a1a1a;stroke-width:0.264583" />
      <rect
         x="87.892097"
         y="126.34398"
         width="15.610416"
         height="2.9104166"
         fill="#042747"
         id="rect55"
         style="fill:#1a1a1a;stroke-width:0.264583" />
      <rect
         x="87.892097"
         y="131.10648"
         width="15.610416"
         height="2.9104166"
         fill="#042747"
         id="rect57"
         style="fill:#1a1a1a;stroke-width:0.264583" />
    </g>
  </g>
</svg>
