<?xml version="1.0" encoding="UTF-8" standalone="no"?>
<!-- Created with Inkscape (http://www.inkscape.org/) -->

<svg
   width="160.60211mm"
   height="28.045837mm"
   viewBox="0 0 160.60211 28.045837"
   version="1.1"
   id="svg21"
   inkscape:version="1.2.2 (b0a8486541, 2022-12-01)"
   sodipodi:docname="stckdai.svg"
   xmlns:inkscape="http://www.inkscape.org/namespaces/inkscape"
   xmlns:sodipodi="http://sodipodi.sourceforge.net/DTD/sodipodi-0.dtd"
   xmlns="http://www.w3.org/2000/svg"
   xmlns:svg="http://www.w3.org/2000/svg">
  <sodipodi:namedview
     id="namedview23"
     pagecolor="#ffffff"
     bordercolor="#000000"
     borderopacity="0.25"
     inkscape:showpageshadow="2"
     inkscape:pageopacity="0.0"
     inkscape:pagecheckerboard="0"
     inkscape:deskcolor="#d1d1d1"
     inkscape:document-units="mm"
     showgrid="false"
     inkscape:zoom="1.1893044"
     inkscape:cx="554.94624"
     inkscape:cy="389.72361"
     inkscape:window-width="1854"
     inkscape:window-height="1131"
     inkscape:window-x="0"
     inkscape:window-y="0"
     inkscape:window-maximized="1"
     inkscape:current-layer="layer1" />
  <defs
     id="defs18" />
  <g
     inkscape:label="Layer 1"
     inkscape:groupmode="layer"
     id="layer1"
     transform="translate(-30.477519,-76.337721)">
    <g
       id="g363"
       inkscape:export-filename="logo.png"
       inkscape:export-xdpi="96"
       inkscape:export-ydpi="96">
      <path
         d="m 190.98568,104.38356 h -5.1181 V 84.020163 h 5.1181 z"
         fill="#0986d7"
         id="path27"
         style="fill:#000000;stroke-width:0.264583" />
      <path
         d="m 165.8119,104.38356 c -0.74375,0 -1.44648,-0.15796 -2.10767,-0.47387 -0.6612,-0.33999 -1.23958,-0.80169 -1.73567,-1.38483 -0.49583,-0.58314 -0.88847,-1.25122 -1.17766,-2.00449 -0.26855,-0.777607 -0.40296,-1.603636 -0.40296,-2.478349 0,-0.874712 0.13441,-1.700741 0.40296,-2.478352 0.28919,-0.777346 0.68183,-1.457589 1.17766,-2.040731 0.49609,-0.583142 1.07447,-1.04484 1.73567,-1.385094 0.66119,-0.339989 1.36392,-0.510116 2.10767,-0.510116 h 11.93271 c 0,-0.704586 -0.21696,-1.299898 -0.65088,-1.785938 -0.41328,-0.485775 -0.91943,-0.728927 -1.51871,-0.728927 h -15.18708 v -5.102225 h 15.18708 c 0.88847,0 1.72535,0.20664 2.51063,0.619654 0.80566,0.388673 1.49781,0.935302 2.07645,1.639888 0.59929,0.680508 1.06416,1.482195 1.39489,2.405327 0.3511,0.923396 0.52678,1.907381 0.52678,2.952221 v 12.755832 z m -1.08479,-6.341539 c 0,0.340254 0.10318,0.643996 0.30982,0.911225 0.22728,0.242888 0.48578,0.364332 0.77497,0.364332 h 11.93271 V 96.766465 H 165.8119 c -0.28919,0 -0.54769,0.121444 -0.77497,0.364596 -0.20664,0.242887 -0.30982,0.546629 -0.30982,0.91096 z"
         fill="#0986d7"
         id="path29"
         style="fill:#000000;stroke-width:0.264583" />
      <path
         d="m 156.75918,104.38356 h -5.0456 v -5.045345 h 5.0456 z"
         fill="#0986d7"
         id="path31"
         style="fill:#000000;stroke-width:0.264583" />
      <path
         d="m 144.759,76.337721 h 4.78102 v 28.045839 h -16.81956 c -1.00886,0 -1.96056,-0.21405 -2.85485,-0.64188 -0.87128,-0.45482 -1.63963,-1.05675 -2.30452,-1.80552 -0.64215,-0.74904 -1.15809,-1.63169 -1.54782,-2.648216 -0.36697,-1.016529 -0.55033,-2.113227 -0.55033,-3.290094 v -5.65732 c 0,-1.150144 0.18336,-2.233348 0.55033,-3.249877 0.38973,-1.01653 0.90567,-1.89918 1.54782,-2.648215 0.66489,-0.775494 1.43324,-1.377421 2.30452,-1.805517 0.89429,-0.454554 1.84599,-0.682096 2.85485,-0.682096 H 144.759 Z m 0,11.234473 h -12.03854 c -0.6649,0 -1.23825,0.267494 -1.71979,0.802481 -0.45852,0.534723 -0.68792,1.190096 -0.68792,1.965855 v 5.65732 c 0,0.775759 0.2294,1.444361 0.68792,2.006071 0.48154,0.534988 1.05489,0.802482 1.71979,0.802482 H 144.759 Z"
         fill="#062947"
         id="path33"
         style="fill:#000000;stroke-width:0.264583" />
      <path
         d="m 105.67395,100.35448 v 4.02908 H 100.5921 V 76.602305 h 5.08185 v 17.03705 l 10.92571,-9.546432 h 7.69514 l -8.71167,7.586134 11.03472,12.704503 h -6.71513 l -8.16716,-9.364932 z"
         fill="#062947"
         id="path35"
         style="fill:#000000;stroke-width:0.264583" />
      <path
         d="m 82.20356,89.112863 c -0.62124,0 -1.14591,0.243152 -1.57427,0.728927 -0.42836,0.48604 -0.64267,1.081352 -0.64267,1.785938 v 5.138737 c 0,0.704585 0.21431,1.312069 0.64267,1.822185 0.42836,0.48604 0.95303,0.728928 1.57427,0.728928 h 15.74271 v 5.065982 H 82.20356 c -0.92101,0 -1.79917,-0.19447 -2.63446,-0.58315 -0.81385,-0.41301 -1.5314,-0.95964 -2.15265,-1.64015 -0.59981,-0.68024 -1.08161,-1.48193 -1.44568,-2.405326 -0.34263,-0.923131 -0.51408,-1.919288 -0.51408,-2.988469 v -5.138737 c 0,-1.04484 0.17145,-2.028825 0.51408,-2.952221 0.36407,-0.923132 0.84587,-1.724819 1.44568,-2.405327 0.62125,-0.704586 1.3388,-1.251215 2.15265,-1.639888 0.83529,-0.413014 1.71345,-0.619654 2.63446,-0.619654 h 15.74271 v 5.102225 z"
         fill="#062947"
         id="path37"
         style="fill:#000000;stroke-width:0.264583" />
      <path
         d="m 64.079602,83.859296 h 8.995838 v 5.140325 h -8.995838 v 7.710223 c 0,0.709877 0.201612,1.321859 0.604837,1.835944 0.423333,0.489479 0.9271,0.734219 1.511829,0.734219 h 6.879172 v 5.103553 h -6.879172 c -0.886883,0 -1.713441,-0.1958 -2.47941,-0.58738 -0.766233,-0.41619 -1.44145,-0.96705 -2.026179,-1.65232 -0.584465,-0.68527 -1.048015,-1.49305 -1.390915,-2.423322 -0.322527,-0.93001 -0.483658,-1.933575 -0.483658,-3.010694 v -7.710223 h -4.070879 v -5.140325 h 4.070879 v -5.140325 h 4.263496 z"
         fill="#062947"
         id="path39"
         style="fill:#000000;stroke-width:0.264583" />
      <path
         d="M 53.231685,83.746055 V 88.84828 H 36.16606 c -0.303398,0 -0.574278,0.121708 -0.812641,0.364595 -0.21672,0.242888 -0.325067,0.534459 -0.325067,0.874713 0,0.364331 0.108347,0.668073 0.325067,0.91096 0.238363,0.243152 0.509243,0.364596 0.812641,0.364596 h 11.377083 c 0.780257,0 1.516857,0.170127 2.210329,0.510117 0.693473,0.340254 1.300428,0.801952 1.820334,1.385094 0.520171,0.583141 0.921014,1.263385 1.202796,2.040731 0.303477,0.77761 0.455083,1.603639 0.455083,2.478352 0,0.874712 -0.151606,1.700742 -0.455083,2.478352 -0.281782,0.75327 -0.682625,1.42134 -1.202796,2.00448 -0.519906,0.58314 -1.126861,1.04484 -1.820334,1.38483 -0.693472,0.31591 -1.430072,0.47387 -2.210329,0.47387 H 30.477518 v -5.065976 h 17.065625 c 0.303477,0 0.563563,-0.121444 0.780257,-0.364331 0.238389,-0.267229 0.357452,-0.570971 0.357452,-0.911225 0,-0.364331 -0.119063,-0.668073 -0.357452,-0.91096 -0.216694,-0.243153 -0.47678,-0.364596 -0.780257,-0.364596 H 36.16606 c -0.78015,0 -1.516936,-0.157957 -2.210409,-0.473869 -0.693446,-0.33999 -1.300241,-0.801688 -1.820333,-1.384829 -0.520091,-0.583142 -0.931836,-1.263386 -1.235234,-2.040996 -0.281702,-0.777346 -0.422566,-1.615546 -0.422566,-2.5146 0,-0.874713 0.140864,-1.688571 0.422566,-2.44184 0.303398,-0.77761 0.715143,-1.457854 1.235234,-2.040995 0.520092,-0.583142 1.126887,-1.032669 1.820333,-1.348582 0.693473,-0.339989 1.430259,-0.510116 2.210409,-0.510116 z"
         fill="#062947"
         id="path41"
         style="fill:#000000;stroke-width:0.264583" />
      <path
         d="m 185.78794,76.337721 h 5.29167 v 5.291667 h -5.29167 z"
         fill="#098cd3"
         id="path43"
         style="fill:#000000;stroke-width:0.264583" />
    </g>
  </g>
</svg>
